<?xml version="1.0" standalone="no"?>
<!DOCTYPE svg PUBLIC "-//W3C//DTD SVG 20010904//EN"
 "http://www.w3.org/TR/2001/REC-SVG-20010904/DTD/svg10.dtd">
<svg version="1.0" xmlns="http://www.w3.org/2000/svg"
 width="1890.000000pt" height="1890.000000pt" viewBox="0 0 1890.000000 1890.000000"
 preserveAspectRatio="xMidYMid meet">
<metadata>
Created by potrace 1.14, written by Peter Selinger 2001-2017
</metadata>
<g transform="translate(0.000000,1890.000000) scale(0.100000,-0.100000)"
fill="#000000" stroke="none">
<path d="M9439 14502 c-19 -9 -41 -24 -50 -34 -9 -10 -21 -18 -26 -18 -5 0
-18 -8 -29 -17 -10 -10 -31 -24 -46 -32 -16 -8 -28 -18 -28 -23 0 -4 -7 -8
-15 -8 -8 0 -15 -4 -15 -10 0 -5 -7 -10 -15 -10 -8 0 -15 -4 -15 -10 0 -5 -7
-10 -15 -10 -8 0 -15 -4 -15 -10 0 -5 -7 -10 -15 -10 -8 0 -15 -4 -15 -8 0 -5
-12 -15 -27 -23 -16 -8 -37 -22 -47 -31 -11 -10 -25 -18 -31 -18 -6 0 -17 -9
-25 -20 -8 -11 -21 -20 -29 -20 -7 0 -21 -8 -30 -18 -9 -9 -28 -23 -43 -31
-16 -8 -28 -18 -28 -23 0 -4 -6 -8 -13 -8 -7 0 -22 -8 -33 -17 -21 -19 -40
-32 -87 -61 -16 -9 -41 -27 -55 -39 -15 -13 -33 -23 -39 -23 -7 0 -13 -3 -13
-8 0 -4 -18 -18 -40 -32 -22 -14 -40 -29 -40 -34 0 -5 -3 -6 -6 -3 -7 7 -94
-51 -107 -71 -5 -7 -12 -10 -16 -8 -4 3 -17 -2 -28 -12 -10 -9 -26 -21 -35
-27 -9 -5 -37 -25 -62 -42 -26 -18 -51 -33 -57 -33 -5 0 -9 -4 -9 -10 0 -5 -5
-10 -10 -10 -6 0 -20 -9 -32 -20 -12 -11 -28 -20 -35 -20 -7 0 -13 -4 -13 -8
0 -5 -12 -15 -27 -23 -16 -8 -35 -21 -43 -29 -8 -8 -27 -21 -42 -29 -16 -8
-28 -18 -28 -23 0 -4 -6 -8 -13 -8 -7 0 -22 -8 -33 -17 -10 -10 -31 -24 -46
-32 -16 -8 -28 -18 -28 -23 0 -4 -6 -8 -12 -8 -7 0 -29 -14 -48 -30 -19 -16
-41 -30 -47 -30 -7 0 -13 -4 -13 -10 0 -5 -7 -10 -15 -10 -8 0 -15 -3 -15 -7
0 -5 -25 -24 -55 -43 -30 -19 -55 -38 -55 -42 0 -5 -6 -8 -13 -8 -7 0 -23 -9
-35 -20 -12 -11 -25 -20 -30 -20 -5 0 -17 -9 -27 -20 -10 -11 -23 -20 -30 -20
-7 0 -20 -9 -30 -20 -10 -11 -24 -20 -32 -20 -7 0 -13 -4 -13 -8 0 -5 -12 -15
-27 -23 -16 -8 -30 -17 -33 -20 -3 -3 -61 -43 -130 -89 -69 -46 -135 -93 -148
-104 -13 -12 -27 -21 -30 -20 -4 0 -11 -4 -17 -8 -5 -5 -32 -23 -60 -40 -27
-18 -52 -35 -55 -38 -3 -3 -50 -34 -104 -70 -55 -36 -104 -69 -110 -75 -6 -5
-23 -16 -38 -24 -16 -8 -28 -18 -28 -23 0 -4 -6 -8 -13 -8 -8 0 -22 -9 -32
-20 -10 -11 -24 -20 -32 -20 -7 0 -13 -4 -13 -8 0 -5 -12 -15 -27 -23 -16 -8
-37 -22 -47 -31 -11 -10 -26 -18 -33 -18 -7 0 -13 -4 -13 -8 0 -5 -12 -15 -27
-23 -16 -8 -35 -21 -43 -29 -8 -8 -27 -21 -42 -29 -16 -8 -28 -18 -28 -23 0
-4 -7 -8 -15 -8 -8 0 -15 -4 -15 -10 0 -5 -7 -10 -15 -10 -8 0 -15 -4 -15 -10
0 -5 -7 -10 -15 -10 -8 0 -15 -4 -15 -10 0 -5 -7 -10 -15 -10 -8 0 -15 -4 -15
-8 0 -5 -12 -15 -27 -23 -16 -8 -37 -22 -47 -31 -11 -10 -25 -18 -31 -18 -6 0
-17 -9 -25 -20 -8 -11 -21 -20 -30 -20 -9 0 -22 -9 -30 -20 -8 -11 -19 -20
-25 -20 -6 0 -20 -8 -31 -17 -10 -10 -31 -24 -46 -32 -16 -8 -28 -18 -28 -23
0 -4 -6 -8 -13 -8 -7 0 -22 -8 -33 -18 -10 -9 -41 -32 -69 -49 -27 -18 -54
-36 -60 -40 -5 -5 -36 -25 -67 -46 -31 -20 -64 -44 -72 -53 -8 -8 -17 -14 -18
-13 -4 4 -92 -55 -96 -63 -2 -5 -9 -8 -16 -8 -7 0 -21 -9 -31 -20 -10 -11 -24
-20 -32 -20 -7 0 -13 -4 -13 -10 0 -5 -5 -10 -10 -10 -6 0 -20 -9 -32 -20 -12
-11 -28 -20 -35 -20 -7 0 -13 -4 -13 -10 0 -5 -6 -10 -13 -10 -7 0 -22 -8 -33
-17 -10 -10 -31 -24 -46 -32 -16 -8 -28 -18 -28 -23 0 -4 -7 -8 -15 -8 -8 0
-15 -4 -15 -10 0 -5 -7 -10 -15 -10 -8 0 -15 -4 -15 -10 0 -5 -7 -10 -15 -10
-8 0 -15 -4 -15 -10 0 -5 -7 -10 -15 -10 -8 0 -15 -4 -15 -8 0 -5 -12 -15 -27
-23 -16 -8 -37 -22 -47 -31 -11 -10 -26 -18 -33 -18 -7 0 -13 -3 -13 -8 0 -4
-18 -18 -40 -32 -22 -14 -40 -28 -40 -32 0 -5 -6 -8 -13 -8 -7 0 -22 -8 -33
-17 -10 -10 -31 -24 -46 -32 -16 -8 -28 -18 -28 -23 0 -4 -7 -8 -15 -8 -8 0
-15 -4 -15 -10 0 -5 -7 -10 -15 -10 -8 0 -15 -4 -15 -10 0 -5 -4 -10 -10 -10
-5 0 -21 -10 -35 -22 l-25 -22 0 -868 0 -868 350 0 350 0 0 665 c0 542 2 665
13 665 7 0 23 9 35 20 12 11 26 20 32 20 5 0 10 5 10 10 0 6 7 10 15 10 8 0
15 5 15 10 0 6 7 10 15 10 8 0 15 3 15 8 0 4 25 23 55 42 30 19 55 38 55 43 0
4 5 7 12 7 6 0 20 7 30 17 10 9 27 21 37 27 10 6 51 34 91 61 40 28 83 57 96
65 46 30 140 95 175 122 20 15 39 25 43 21 3 -3 6 -1 6 5 0 6 13 18 29 27 16
8 35 20 43 27 25 24 77 58 88 58 5 0 10 5 10 10 0 6 5 10 10 10 6 0 20 9 32
20 12 11 28 20 35 20 7 0 13 3 13 8 0 4 18 18 40 32 22 14 40 28 40 32 0 5 6
8 13 8 7 0 23 9 35 20 12 11 26 20 32 20 5 0 10 4 10 8 0 5 12 15 28 23 15 8
29 17 32 20 3 3 28 20 55 39 28 19 52 36 55 39 3 3 17 12 33 20 15 8 27 18 27
23 0 4 5 8 10 8 6 0 20 9 32 20 12 11 28 20 35 20 7 0 13 3 13 8 0 4 18 18 40
32 22 14 40 28 40 32 0 5 6 8 13 8 7 0 23 9 35 20 12 11 26 20 32 20 5 0 10 5
10 10 0 6 5 10 10 10 6 0 20 9 32 20 12 11 28 20 35 20 7 0 13 3 13 8 0 4 18
18 40 32 22 14 40 28 40 32 0 5 6 8 13 8 7 0 23 9 35 20 12 11 25 20 30 20 4
0 17 8 28 18 26 23 137 98 141 95 2 -2 11 4 21 12 42 37 81 65 91 65 6 0 11 5
11 10 0 6 7 10 15 10 8 0 15 5 15 10 0 6 6 10 14 10 8 0 16 4 18 8 2 5 46 37
98 72 52 35 97 67 98 72 2 4 10 8 18 8 8 0 14 5 14 10 0 6 7 10 15 10 8 0 15
4 15 8 0 5 12 15 28 23 15 8 29 17 32 20 3 3 34 25 70 49 36 24 67 47 68 52 2
4 10 8 18 8 8 0 14 5 14 10 0 6 5 10 10 10 6 0 20 9 32 20 12 11 28 20 35 20
7 0 13 3 13 8 0 4 18 18 40 32 22 14 40 28 40 32 0 5 6 8 13 8 7 0 23 9 35 20
12 11 25 20 29 20 4 0 24 14 43 30 19 16 41 30 48 30 6 0 12 3 12 8 0 4 18 18
40 32 22 14 40 28 40 32 0 5 6 8 13 8 7 0 23 9 35 20 12 11 25 20 30 20 4 0
17 8 28 18 18 16 233 164 272 187 9 6 19 12 22 15 3 3 41 30 85 60 44 30 82
58 83 62 2 4 9 8 15 8 7 0 25 11 41 25 16 14 32 25 36 25 4 0 20 11 36 25 16
14 35 25 42 25 6 0 12 5 12 10 0 6 5 10 11 10 6 0 16 6 24 13 25 24 50 42 78
56 15 8 27 18 27 23 0 4 7 8 15 8 8 0 15 5 15 10 0 6 7 10 15 10 8 0 15 5 15
10 0 6 5 10 12 10 6 0 20 7 30 17 17 15 23 13 105 -42 49 -32 90 -62 91 -67 2
-4 10 -8 18 -8 8 0 14 -4 14 -10 0 -5 6 -10 13 -10 8 0 22 -9 32 -20 10 -11
24 -20 32 -20 7 0 13 -4 13 -9 0 -5 8 -12 19 -16 10 -3 31 -17 47 -30 16 -14
35 -25 42 -25 6 0 12 -4 12 -8 0 -5 18 -18 40 -31 22 -12 40 -27 40 -33 0 -6
3 -8 7 -5 3 4 13 1 22 -6 30 -26 181 -127 189 -127 5 0 19 -11 32 -25 12 -13
27 -22 31 -19 5 3 9 1 9 -4 0 -5 12 -15 28 -23 15 -8 29 -17 32 -20 3 -3 55
-39 115 -79 61 -40 112 -77 113 -82 2 -4 9 -8 16 -8 7 0 21 -9 31 -20 10 -11
24 -20 32 -20 7 0 13 -4 13 -8 0 -5 12 -15 28 -23 15 -8 36 -22 46 -31 11 -10
26 -18 33 -18 7 0 13 -3 13 -8 0 -4 18 -18 40 -32 22 -14 40 -28 40 -32 0 -5
6 -8 13 -8 7 0 22 -8 33 -17 10 -10 31 -24 47 -32 15 -8 27 -18 27 -23 0 -4 7
-8 15 -8 8 0 15 -4 15 -10 0 -5 7 -10 15 -10 8 0 15 -4 15 -10 0 -5 7 -10 15
-10 8 0 15 -4 15 -10 0 -5 7 -10 15 -10 8 0 15 -4 15 -8 0 -5 12 -15 28 -23
15 -8 36 -22 46 -31 11 -10 25 -18 31 -18 6 0 17 -9 25 -20 8 -11 20 -20 27
-20 7 0 21 -8 31 -17 10 -10 30 -24 45 -32 15 -8 27 -18 27 -23 0 -4 7 -8 15
-8 8 0 15 -4 15 -10 0 -5 6 -10 13 -10 7 0 22 -8 33 -17 10 -10 31 -24 47 -32
15 -8 27 -18 27 -23 0 -4 7 -8 15 -8 8 0 15 -4 15 -9 0 -5 9 -13 21 -16 12 -4
30 -16 40 -26 10 -10 26 -19 34 -19 8 0 15 -7 15 -17 0 -9 3 -13 6 -10 6 6
111 -61 142 -90 6 -6 21 -15 32 -18 11 -3 20 -11 20 -16 0 -5 6 -9 13 -9 6 0
25 -11 41 -25 16 -14 32 -25 36 -25 4 0 20 -11 36 -25 16 -14 35 -25 42 -25 6
0 12 -4 12 -8 0 -5 12 -15 28 -23 15 -8 29 -17 32 -20 3 -3 34 -25 70 -49 36
-24 67 -46 70 -49 3 -3 17 -12 33 -20 15 -8 27 -18 27 -23 0 -4 7 -8 15 -8 8
0 15 -4 15 -10 0 -5 7 -10 15 -10 8 0 15 -4 15 -10 0 -5 7 -10 15 -10 8 0 15
-4 15 -10 0 -5 7 -10 15 -10 8 0 15 -4 15 -8 0 -5 12 -15 28 -23 15 -8 29 -17
32 -20 3 -3 34 -25 70 -49 36 -24 67 -46 70 -49 3 -3 17 -12 33 -20 15 -8 27
-18 27 -23 0 -4 6 -8 13 -8 8 0 22 -9 32 -20 10 -11 23 -20 30 -20 7 0 20 -9
30 -20 10 -11 24 -20 31 -20 7 0 14 -4 16 -8 2 -5 49 -38 105 -75 56 -37 108
-74 117 -82 8 -9 18 -15 22 -14 3 0 17 -8 30 -20 13 -11 24 -18 24 -14 0 4 13
-5 28 -20 16 -15 31 -25 34 -22 2 3 13 -4 23 -15 10 -11 24 -20 31 -20 7 0 14
-4 16 -8 2 -5 66 -51 143 -102 77 -51 141 -97 143 -102 2 -4 10 -8 18 -8 8 0
14 -4 14 -8 0 -5 12 -15 28 -23 15 -8 36 -22 46 -31 11 -10 26 -18 33 -18 7 0
13 -4 13 -10 0 -5 9 -10 20 -10 20 0 20 -7 20 -675 l0 -675 330 0 330 0 0 864
0 864 -45 29 c-25 15 -45 31 -45 36 0 4 -6 7 -13 7 -7 0 -23 9 -35 20 -12 11
-26 20 -32 20 -5 0 -10 5 -10 10 0 6 -7 10 -15 10 -8 0 -15 4 -15 8 0 5 -12
15 -27 23 -16 8 -35 21 -43 29 -8 8 -27 21 -42 29 -16 8 -28 18 -28 23 0 4 -7
8 -15 8 -8 0 -15 5 -15 10 0 6 -5 10 -10 10 -6 0 -20 9 -32 20 -12 11 -28 20
-35 20 -7 0 -13 3 -13 8 0 4 -18 18 -40 32 -22 14 -40 28 -40 32 0 5 -6 8 -14
8 -7 0 -19 7 -26 15 -7 8 -31 24 -55 36 -24 12 -53 31 -66 43 -13 12 -31 25
-39 28 -8 4 -44 27 -80 53 -36 25 -96 67 -135 92 -38 26 -76 52 -83 59 -6 7
-21 16 -32 19 -11 3 -20 11 -20 16 0 5 -6 9 -12 9 -7 1 -29 14 -48 30 -19 17
-40 30 -47 30 -7 0 -13 4 -13 8 0 5 -12 15 -27 23 -16 8 -35 21 -43 29 -8 8
-27 21 -42 29 -16 8 -28 18 -28 23 0 4 -6 8 -13 8 -7 0 -23 9 -35 20 -12 11
-26 20 -32 20 -5 0 -10 5 -10 10 0 6 -6 10 -14 10 -8 0 -16 4 -18 8 -2 5 -32
28 -68 52 -36 24 -67 46 -70 49 -3 3 -17 12 -32 20 -16 8 -28 18 -28 23 0 4
-7 8 -15 8 -8 0 -15 5 -15 10 0 6 -7 10 -15 10 -8 0 -15 5 -15 10 0 6 -6 10
-14 10 -8 0 -16 4 -18 8 -2 5 -39 33 -83 62 -44 29 -81 57 -83 62 -2 4 -10 8
-18 8 -8 0 -14 4 -14 8 0 5 -12 15 -27 23 -16 8 -37 22 -47 32 -11 9 -25 17
-31 17 -6 0 -17 9 -25 20 -8 11 -18 20 -23 20 -11 0 -101 61 -105 72 -2 4 -10
8 -18 8 -8 0 -14 5 -14 10 0 6 -7 10 -15 10 -8 0 -15 5 -15 10 0 6 -7 10 -15
10 -8 0 -15 5 -15 10 0 6 -6 10 -14 10 -8 0 -16 4 -18 8 -2 7 -163 119 -226
157 -9 6 -25 18 -36 28 -11 9 -25 17 -32 17 -7 0 -14 4 -16 8 -1 5 -46 37 -98
72 -52 35 -96 67 -98 72 -2 4 -10 8 -18 8 -8 0 -14 5 -14 10 0 6 -7 10 -15 10
-8 0 -15 4 -15 8 0 5 -12 15 -27 23 -16 8 -37 22 -47 32 -11 9 -25 17 -31 17
-6 0 -17 9 -25 20 -8 11 -19 20 -25 20 -6 0 -20 8 -31 18 -10 9 -31 23 -46 31
-16 8 -28 18 -28 23 0 4 -7 8 -15 8 -8 0 -15 5 -15 10 0 6 -7 10 -15 10 -8 0
-15 4 -15 8 0 5 -12 15 -27 23 -16 8 -30 17 -33 20 -3 3 -34 25 -70 49 -36 24
-66 47 -68 52 -2 4 -9 8 -16 8 -7 0 -21 9 -31 20 -10 11 -24 20 -32 20 -7 0
-13 5 -13 10 0 6 -7 10 -15 10 -8 0 -15 4 -15 8 0 5 -12 15 -27 23 -16 8 -30
17 -33 20 -3 3 -34 26 -70 50 -36 24 -66 47 -68 51 -2 5 -9 8 -16 8 -7 0 -21
8 -32 18 -19 17 -178 127 -215 148 -10 6 -27 18 -37 27 -10 10 -23 17 -28 17
-6 0 -19 8 -30 18 -10 10 -62 47 -114 82 -52 35 -97 66 -100 69 -3 3 -17 12
-32 20 -16 8 -28 18 -28 23 0 4 -7 8 -15 8 -8 0 -15 5 -15 10 0 6 -7 10 -15
10 -8 0 -15 5 -15 10 0 6 -6 10 -14 10 -8 0 -16 4 -18 8 -1 5 -32 28 -68 52
-36 24 -66 47 -68 52 -2 4 -10 8 -18 8 -8 0 -14 5 -14 10 0 6 -6 10 -13 10 -7
0 -23 9 -35 20 -12 11 -26 20 -32 20 -5 0 -10 4 -10 8 0 5 -12 15 -27 23 -16
8 -30 16 -33 19 -3 3 -21 17 -41 32 -34 26 -36 26 -70 10z"/>
<path d="M9223 12598 c-13 -6 -23 -15 -23 -20 0 -4 -5 -8 -11 -8 -5 0 -37 -18
-69 -40 -32 -22 -64 -40 -69 -40 -6 0 -11 -4 -11 -10 0 -5 -7 -10 -15 -10 -8
0 -15 -4 -15 -10 0 -5 -7 -10 -15 -10 -8 0 -15 -4 -15 -9 0 -5 -13 -14 -30
-21 -16 -7 -30 -16 -30 -21 0 -5 -6 -9 -13 -9 -7 0 -22 -8 -33 -17 -25 -23
-74 -53 -96 -60 -10 -3 -18 -9 -18 -14 0 -5 -7 -9 -15 -9 -8 0 -15 -4 -15 -10
0 -5 -7 -10 -15 -10 -8 0 -15 -4 -15 -10 0 -5 -6 -10 -13 -10 -7 0 -23 -9 -35
-20 -12 -11 -24 -20 -27 -20 -3 0 -39 -22 -80 -50 -41 -27 -79 -50 -85 -50 -5
0 -10 -4 -10 -10 0 -5 -7 -10 -15 -10 -8 0 -15 -4 -15 -10 0 -5 -6 -10 -13
-10 -7 0 -23 -9 -35 -20 -12 -11 -24 -20 -27 -20 -3 0 -38 -21 -78 -47 -83
-55 -93 -61 -164 -103 -29 -17 -53 -36 -53 -42 0 -6 -3 -8 -7 -5 -3 4 -21 -5
-40 -19 -18 -14 -33 -23 -33 -20 0 3 -12 -4 -26 -17 -14 -12 -29 -22 -33 -22
-5 0 -19 -8 -32 -17 -40 -30 -179 -118 -185 -118 -3 0 -14 -9 -26 -20 -12 -11
-28 -20 -35 -20 -7 0 -13 -4 -13 -10 0 -5 -7 -10 -15 -10 -8 0 -15 -4 -15 -10
0 -5 -5 -10 -10 -10 -6 0 -44 -22 -85 -50 -41 -27 -79 -50 -85 -50 -5 0 -10
-4 -10 -10 0 -5 -7 -10 -15 -10 -8 0 -15 -4 -15 -10 0 -5 -7 -10 -15 -10 -8 0
-15 -4 -15 -10 0 -5 -7 -10 -15 -10 -8 0 -15 -4 -15 -10 0 -5 -7 -10 -15 -10
-8 0 -15 -4 -15 -10 0 -5 -9 -10 -20 -10 -11 0 -20 -4 -20 -8 0 -5 -12 -15
-27 -23 -16 -8 -37 -22 -47 -31 -11 -10 -26 -18 -33 -18 -7 0 -13 -4 -13 -10
0 -5 -7 -10 -15 -10 -8 0 -15 -4 -15 -10 0 -5 -7 -10 -15 -10 -8 0 -15 -4 -15
-10 0 -5 -6 -10 -13 -10 -7 0 -22 -8 -33 -17 -18 -17 -33 -26 -88 -57 -11 -6
-29 -19 -40 -28 -11 -10 -26 -18 -33 -18 -7 0 -13 -4 -13 -10 0 -5 -7 -10 -15
-10 -8 0 -15 -4 -15 -10 0 -5 -7 -10 -15 -10 -8 0 -15 -4 -15 -10 0 -5 -4 -10
-10 -10 -9 0 -180 -107 -207 -130 -7 -5 -16 -10 -21 -10 -4 0 -18 -9 -30 -20
-12 -12 -22 -18 -22 -15 0 3 -16 -6 -35 -21 -19 -14 -35 -22 -35 -18 0 5 -4 4
-8 -2 -10 -15 -99 -74 -111 -74 -6 0 -11 -4 -11 -9 0 -5 -13 -14 -30 -21 -16
-7 -30 -16 -30 -20 0 -4 -8 -10 -17 -13 -23 -7 -72 -37 -97 -59 -11 -10 -24
-18 -28 -18 -5 0 -18 -9 -30 -20 -12 -11 -28 -20 -35 -20 -7 0 -13 -4 -13 -10
0 -5 -6 -10 -12 -10 -7 0 -25 -11 -40 -24 l-28 -23 0 -522 0 -521 383 0 384 0
0 307 0 306 78 48 c42 26 86 56 97 66 11 10 22 17 24 15 3 -1 14 4 27 13 64
46 207 135 215 135 6 0 12 4 14 8 4 12 125 92 137 92 6 0 11 5 11 10 0 6 7 10
15 10 8 0 15 5 15 10 0 6 7 10 15 10 8 0 15 5 15 10 0 6 7 10 15 10 8 0 15 5
15 10 0 6 7 10 15 10 8 0 15 5 15 10 0 6 7 10 15 10 8 0 15 5 15 10 0 6 7 10
15 10 8 0 15 5 15 10 0 6 7 10 15 10 8 0 15 5 15 10 0 6 5 10 10 10 6 0 58 32
115 70 57 39 109 70 115 70 5 0 10 4 10 8 0 5 12 15 28 23 15 8 36 22 46 32
11 9 24 17 28 17 5 0 18 9 30 20 12 11 28 20 35 20 7 0 13 5 13 10 0 6 7 10
15 10 8 0 15 5 15 10 0 6 7 10 15 10 8 0 15 5 15 10 0 6 6 10 13 10 7 0 22 8
33 18 10 9 31 23 47 31 15 8 27 18 27 23 0 4 6 8 13 8 7 0 23 9 35 20 12 11
24 20 27 20 3 0 42 25 88 55 45 30 87 55 94 55 7 0 13 5 13 10 0 6 12 16 28
22 15 7 35 20 45 30 10 10 22 18 27 18 6 0 10 -327 10 -890 l0 -890 385 0 385
0 1 1088 c0 1130 0 2007 -1 2055 0 29 -11 32 -47 15z"/>
<path d="M9675 12598 c-2 -7 -6 -256 -9 -553 -2 -297 -6 -610 -8 -695 -2 -85
0 -165 5 -177 5 -12 23 -27 38 -34 16 -6 29 -15 29 -20 0 -5 5 -9 11 -9 5 0
37 -18 69 -40 32 -22 62 -40 65 -40 3 0 15 -9 27 -20 12 -11 28 -20 35 -20 7
0 13 -4 13 -10 0 -5 7 -10 15 -10 8 0 15 -4 15 -10 0 -5 7 -10 15 -10 8 0 15
-4 15 -10 0 -5 6 -10 13 -10 7 0 22 -8 33 -17 11 -10 30 -24 42 -30 12 -7 32
-19 44 -25 12 -7 31 -21 42 -30 11 -10 26 -18 33 -18 7 0 13 -4 13 -10 0 -5 7
-10 15 -10 8 0 15 -4 15 -10 0 -5 7 -10 15 -10 8 0 15 -4 15 -10 0 -5 7 -10
15 -10 8 0 15 -4 15 -10 0 -5 7 -10 15 -10 8 0 15 -4 15 -10 0 -5 11 -10 25
-10 21 0 25 5 25 33 1 66 -1 305 -3 390 -1 48 1 87 6 87 4 0 34 -17 65 -37 31
-20 60 -36 65 -35 4 1 7 -2 7 -7 0 -5 14 -14 30 -21 17 -7 30 -16 30 -21 0 -5
6 -9 13 -9 7 0 22 -8 33 -17 18 -17 33 -26 88 -57 11 -6 29 -19 40 -28 11 -10
26 -18 33 -18 7 0 13 -4 13 -10 0 -5 5 -10 11 -10 5 0 37 -18 69 -40 32 -22
62 -40 65 -40 3 0 15 -9 27 -20 12 -11 28 -20 35 -20 7 0 13 -4 13 -10 0 -5 6
-10 13 -10 7 0 23 -9 35 -20 12 -11 24 -20 27 -20 4 0 26 -13 50 -30 24 -16
48 -30 54 -30 6 0 11 -4 11 -10 0 -5 7 -10 15 -10 8 0 15 -4 15 -10 0 -5 7
-10 15 -10 8 0 15 -4 15 -10 0 -5 7 -10 15 -10 8 0 15 -4 15 -10 0 -5 5 -10
11 -10 6 0 30 -13 54 -30 24 -16 46 -30 50 -30 3 0 15 -9 27 -20 12 -11 28
-20 35 -20 7 0 13 -4 13 -10 0 -5 7 -10 15 -10 8 0 15 -4 15 -10 0 -5 5 -10
10 -10 6 0 44 -22 85 -50 41 -27 79 -50 85 -50 5 0 10 -4 10 -8 0 -5 20 -19
45 -32 24 -12 52 -30 62 -39 10 -9 31 -23 47 -31 58 -29 66 -35 66 -43 0 -4 5
-5 10 -2 6 3 10 2 10 -4 0 -6 16 -18 35 -27 19 -9 35 -21 35 -27 0 -6 3 -8 6
-4 4 3 39 -16 80 -43 40 -28 78 -50 84 -50 11 0 11 9 11 -362 l0 -278 364 0
365 0 0 511 c0 429 -2 513 -14 525 -8 8 -19 14 -25 14 -6 0 -11 5 -11 10 0 6
-7 10 -15 10 -8 0 -15 5 -15 10 0 6 -6 10 -13 10 -7 0 -22 8 -33 18 -10 9 -31
23 -46 31 -16 8 -28 18 -28 23 0 4 -6 8 -13 8 -7 0 -23 9 -35 20 -12 11 -24
20 -27 20 -9 0 -99 62 -106 73 -3 5 -8 7 -10 6 -2 -2 -24 10 -49 26 -25 17
-53 35 -61 40 -9 6 -42 27 -73 48 -31 20 -60 37 -65 37 -5 0 -11 3 -13 8 -5
11 -66 52 -78 52 -5 0 -10 5 -10 10 0 6 -4 10 -10 10 -5 0 -104 63 -220 140
-115 77 -215 140 -220 140 -6 0 -10 5 -10 10 0 6 -7 10 -15 10 -8 0 -15 5 -15
10 0 6 -7 10 -15 10 -8 0 -15 5 -15 10 0 6 -7 10 -15 10 -8 0 -15 5 -15 10 0
6 -7 10 -15 10 -8 0 -15 4 -15 8 0 5 -20 19 -45 32 -25 13 -45 27 -45 32 0 4
-6 8 -13 8 -7 0 -22 8 -33 18 -10 9 -31 23 -46 31 -16 8 -28 18 -28 23 0 4 -5
8 -10 8 -13 0 -194 120 -198 132 -2 4 -12 8 -23 8 -10 0 -19 4 -19 8 0 5 -12
15 -27 23 -16 8 -37 22 -47 32 -11 9 -26 17 -33 17 -7 0 -13 4 -13 8 0 5 -12
15 -27 23 -32 16 -82 49 -100 66 -7 6 -22 15 -33 18 -11 3 -20 11 -20 16 0 5
-7 9 -15 9 -8 0 -15 5 -15 11 0 5 -5 7 -10 4 -6 -3 -13 1 -16 9 -3 9 -11 16
-16 16 -5 0 -75 43 -154 95 -80 52 -149 95 -155 95 -5 0 -9 4 -9 8 0 5 -12 15
-27 23 -16 8 -37 22 -47 32 -11 9 -26 17 -33 17 -7 0 -13 4 -13 8 0 5 -12 15
-27 23 -16 8 -37 22 -47 32 -11 9 -26 17 -33 17 -7 0 -13 5 -13 10 0 6 -7 10
-15 10 -8 0 -15 5 -15 10 0 6 -7 10 -15 10 -8 0 -15 5 -15 10 0 6 -6 10 -13
10 -7 0 -22 8 -33 18 -10 9 -31 23 -46 31 -16 8 -28 18 -28 23 0 4 -6 8 -13 8
-7 0 -22 8 -33 18 -10 9 -31 23 -46 31 -16 8 -28 18 -28 23 0 4 -5 8 -10 8 -6
0 -51 27 -100 60 -49 33 -94 60 -100 60 -5 0 -10 3 -10 8 0 4 -9 13 -20 20
-17 10 -21 10 -25 0z"/>
<path d="M5117 9034 c-1 -1 -21 -4 -45 -8 -75 -10 -125 -26 -189 -62 -135 -75
-213 -221 -213 -397 0 -122 44 -230 130 -318 78 -79 154 -116 381 -183 191
-56 247 -87 275 -153 36 -84 -3 -192 -89 -248 -15 -10 -51 -23 -80 -30 -106
-23 -211 -4 -276 52 -44 38 -98 136 -108 198 -3 22 -10 43 -15 46 -5 3 -34 2
-66 -2 -31 -5 -86 -11 -122 -15 -36 -3 -68 -8 -72 -11 -13 -7 -9 -54 8 -118 8
-33 17 -68 19 -78 7 -32 53 -126 81 -164 69 -94 171 -159 292 -187 78 -18 256
-18 341 0 247 52 396 253 384 519 -4 87 -4 89 -22 155 -20 68 -45 112 -102
174 -63 69 -157 117 -334 171 -246 75 -307 105 -338 165 -21 42 -16 103 11
140 10 13 41 36 68 49 42 22 62 25 139 25 97 -1 145 -16 182 -56 29 -32 60
-95 68 -140 l7 -36 131 4 c73 3 137 7 143 9 32 10 -18 204 -74 291 -89 137
-218 199 -430 206 -46 2 -84 2 -85 2z"/>
<path d="M5914 8971 c8 -51 15 -85 32 -166 8 -38 17 -86 20 -105 3 -19 9 -51
14 -70 5 -19 12 -50 15 -68 3 -18 12 -64 20 -102 8 -38 17 -84 20 -102 3 -18
21 -109 40 -203 19 -93 36 -181 39 -195 2 -14 16 -81 30 -150 13 -69 27 -136
30 -150 6 -32 25 -127 31 -160 3 -14 10 -49 16 -77 l10 -53 158 0 158 0 11 53
c19 88 68 305 102 452 17 77 34 148 36 158 2 10 5 26 8 35 3 9 7 28 10 42 2
14 10 48 16 75 6 28 13 57 15 65 50 224 66 290 73 310 8 22 9 21 15 -16 3 -21
8 -48 11 -59 10 -41 114 -504 122 -544 3 -12 11 -51 19 -85 8 -33 16 -72 19
-86 3 -14 24 -109 47 -212 l42 -188 153 0 c137 0 153 2 158 18 4 13 80 375
102 487 2 11 13 67 25 124 11 57 23 116 26 130 2 14 13 64 23 111 10 47 22
101 25 120 3 19 10 53 15 75 5 22 12 56 15 75 3 19 12 62 20 95 7 33 16 76 19
95 3 19 15 80 27 135 18 89 25 119 32 159 1 8 -42 12 -140 13 -158 3 -146 8
-158 -72 -3 -23 -8 -52 -11 -65 -8 -40 -33 -176 -55 -295 -11 -60 -21 -117
-24 -125 -2 -8 -6 -31 -9 -50 -2 -19 -9 -55 -14 -80 -6 -25 -13 -65 -17 -90
-3 -25 -8 -52 -11 -61 -3 -10 -7 -30 -9 -45 -2 -16 -7 -41 -10 -56 -8 -44 -15
-80 -21 -118 -12 -68 -21 -63 -37 21 -15 79 -43 208 -87 414 -11 50 -22 101
-24 115 -15 82 -99 469 -106 486 -8 21 -14 22 -175 22 -116 0 -168 -4 -170
-12 -2 -6 -13 -56 -26 -111 -12 -55 -36 -163 -54 -240 -35 -150 -69 -298 -81
-355 -4 -19 -8 -37 -9 -40 -1 -3 -5 -23 -9 -45 -4 -22 -12 -53 -16 -70 -5 -16
-12 -43 -15 -60 -3 -16 -7 -34 -9 -40 -1 -5 -9 -38 -16 -73 -7 -34 -14 -61
-16 -60 -3 4 -7 23 -24 121 -6 34 -15 82 -20 107 -5 25 -12 61 -15 80 -7 51
-14 92 -21 120 -3 14 -8 36 -10 50 -3 14 -16 88 -30 165 -15 77 -28 149 -30
160 -13 77 -44 246 -50 272 l-6 33 -145 -2 -145 -2 6 -35z"/>
<path d="M7926 9002 c-2 -4 -3 -373 -3 -819 l0 -813 141 0 141 0 -1 813 c-1
446 -2 815 -3 819 -1 9 -270 9 -275 0z"/>
<path d="M8523 8189 l0 -819 141 0 142 0 -1 305 c0 265 2 306 15 309 8 2 80 4
160 5 185 0 272 8 337 33 96 35 184 123 231 229 18 43 24 61 37 129 10 46 7
224 -4 272 -18 79 -45 138 -89 198 -58 78 -134 128 -222 145 -19 4 -195 9
-391 10 l-356 4 0 -820z m652 517 c54 -23 74 -43 101 -101 54 -115 9 -268 -93
-311 -42 -18 -101 -25 -250 -28 -83 -2 -123 1 -124 8 -4 32 -5 442 -1 449 2 5
77 7 166 4 120 -3 171 -8 201 -21z"/>
<path d="M9876 9002 c-2 -4 -4 -373 -4 -819 l0 -813 532 0 532 0 -2 133 c-1
72 -2 135 -3 139 0 4 -174 6 -386 5 -249 -1 -386 2 -388 8 -2 6 -3 105 -3 220
l1 210 350 5 350 5 0 135 0 135 -345 0 c-190 0 -347 3 -350 7 -3 3 -5 84 -5
180 l0 173 377 3 377 2 0 139 -1 138 -514 1 c-282 0 -515 -2 -518 -6z"/>
<path d="M11812 8471 c1 -546 7 -684 34 -781 49 -173 180 -299 348 -335 73
-15 269 -17 346 -3 67 12 166 59 218 104 68 58 129 172 146 274 16 93 20 236
20 735 l1 540 -140 0 -140 0 -1 -491 c-2 -604 -6 -690 -38 -760 -49 -107 -166
-151 -313 -119 -102 23 -175 115 -189 240 -4 33 -8 301 -8 595 l-2 535 -141 1
-142 2 1 -537z"/>
<path d="M13272 8189 l0 -819 142 0 141 0 0 308 0 307 145 2 c246 2 319 11
395 48 89 43 159 118 203 218 18 41 23 56 38 127 11 55 5 229 -11 291 -32 129
-100 227 -196 283 -78 45 -152 52 -520 54 l-337 1 0 -820z m662 512 c79 -39
119 -113 115 -214 -5 -117 -75 -197 -186 -213 -47 -6 -284 -12 -298 -7 -7 2
-10 84 -9 231 1 125 2 229 3 231 0 2 75 1 165 -1 143 -4 169 -8 210 -27z"/>
<path d="M4550 5687 l0 -1304 1253 -6 c688 -4 1476 -7 1750 -7 292 0 497 -4
497 -9 0 -10 19 -9 37 2 6 4 14 4 17 -1 6 -9 87 -9 102 1 6 3 14 3 18 0 9 -9
86 -11 81 -3 -2 4 6 5 18 4 12 -1 22 -3 22 -4 0 -1 19 -3 42 -4 23 -1 40 2 37
6 -3 4 5 4 18 -1 14 -5 31 -5 40 0 9 5 19 6 22 1 6 -10 87 -9 103 1 6 4 14 4
16 0 4 -6 136 -7 192 -2 6 1 22 -1 37 -4 15 -3 30 -1 34 4 3 6 11 6 17 2 14
-10 87 -10 103 0 6 3 14 3 18 0 10 -10 86 -11 80 -1 -3 4 5 4 18 0 21 -7 138
-8 163 -2 6 1 12 1 15 0 15 -6 88 -5 84 2 -3 4 5 4 18 -1 14 -5 31 -5 40 0 9
5 19 6 22 1 6 -9 93 -9 102 1 4 4 13 2 20 -4 8 -7 14 -7 18 0 4 6 16 7 29 3
26 -10 38 -9 54 1 6 4 14 4 17 -1 6 -9 87 -9 102 1 6 3 14 3 18 0 9 -9 86 -11
81 -2 -5 6 18 5 67 -4 15 -3 30 -1 34 4 3 6 11 6 17 2 14 -10 87 -10 103 0 6
3 14 3 18 0 9 -9 86 -11 81 -2 -5 6 18 5 67 -4 15 -3 30 -1 34 4 3 6 11 6 17
2 14 -10 87 -10 103 0 6 3 14 3 18 0 9 -9 86 -11 81 -2 -5 6 18 5 67 -4 15 -3
30 -1 34 4 3 6 11 6 17 2 14 -10 87 -10 103 0 6 3 14 3 18 0 9 -9 86 -11 81
-3 -2 4 6 5 18 4 12 -1 22 -3 22 -4 0 -1 19 -3 42 -4 23 -1 40 2 37 6 -3 4 5
4 18 -1 14 -5 31 -5 40 0 9 5 19 6 22 1 6 -10 87 -9 103 1 6 4 14 4 16 0 4 -6
136 -7 192 -2 6 1 22 -1 37 -4 15 -3 30 -1 34 4 3 6 11 6 17 2 14 -10 87 -10
103 0 6 3 14 3 18 0 10 -10 86 -11 80 -1 -3 4 5 4 18 0 21 -7 138 -8 163 -2 6
1 12 1 15 0 15 -6 88 -5 84 2 -3 4 5 4 18 -1 14 -5 31 -5 40 0 9 5 19 6 22 1
6 -9 93 -9 102 1 4 4 13 2 20 -4 8 -7 14 -7 18 0 4 6 16 7 29 3 26 -10 38 -9
54 1 6 4 14 4 17 -1 6 -9 87 -9 102 1 6 3 14 3 18 0 9 -9 86 -11 81 -2 -5 6
18 5 67 -4 15 -3 30 -1 34 4 3 6 11 6 17 2 14 -10 87 -10 103 0 6 3 14 3 18 0
10 -10 86 -11 80 -1 -3 4 5 4 18 0 18 -6 123 -7 173 -1 6 1 22 -1 37 -4 15 -3
30 -1 34 4 3 6 11 6 17 2 14 -10 87 -10 103 0 6 3 14 3 18 0 10 -10 86 -11 80
-1 -3 4 5 5 18 0 18 -6 284 -7 333 -1 6 1 22 -1 37 -4 15 -3 30 -1 34 4 3 6
11 6 17 2 14 -10 87 -10 103 0 6 3 14 3 18 0 10 -10 86 -11 80 -1 -3 4 5 4 18
0 18 -6 123 -7 173 -1 6 1 22 -1 37 -4 15 -3 30 -1 34 4 3 6 11 6 17 2 14 -10
93 -10 103 0 4 4 13 2 19 -3 7 -6 20 -8 29 -4 15 6 16 116 16 1320 l0 1314
-329 0 -329 0 -3 -22 c-2 -13 -4 -454 -4 -980 l1 -958 -4218 -2 -4218 -3 0
983 0 982 -350 0 -350 0 0 -1303z"/>
<path d="M8499 6948 c-4 -256 0 -1110 5 -1116 8 -7 732 -12 754 -4 9 3 12 129
12 583 l0 579 -385 0 -385 0 -1 -42z"/>
<path d="M12209 6928 c-1 -35 -1 -125 -1 -200 0 -95 -3 -138 -11 -140 -7 -3
-33 -4 -59 -3 -28 1 -48 -3 -48 -9 0 -7 -3 -8 -8 -1 -9 13 -52 15 -52 2 0 -6
-5 -5 -13 1 -8 7 -18 7 -27 2 -9 -5 -19 -5 -27 2 -9 7 -13 7 -13 -1 0 -8 -5
-9 -17 -2 -11 6 -24 6 -35 0 -12 -7 -18 -6 -18 2 0 8 -4 8 -13 1 -8 -7 -252
-11 -745 -12 l-733 -1 1 33 c1 62 -12 333 -16 337 -2 2 -160 4 -350 5 -253 1
-348 -2 -351 -11 -7 -17 -9 -1094 -2 -1104 3 -6 634 -9 1640 -7 l1634 3 3 583
2 582 -370 0 -370 0 -1 -62z"/>
<path d="M5941 6553 c-17 -18 -16 -729 2 -740 13 -9 746 -12 748 -4 5 27 2
736 -3 744 -11 17 -731 17 -747 0z"/>
</g>
</svg>
